<?xml version="1.0" encoding="utf-8"?>
<svg version="1.1" xmlns="http://www.w3.org/2000/svg" xmlns:xlink="http://www.w3.org/1999/xlink" x="0px" y="0px" viewBox="0 0 594.8 595.3">
<path fill="#ffffff" d="M455.9,594.9c9.5-87.1-44.4-167-131.5-176.5l-49.8-5.4c-87.1-9.5-165.7,94.8-175.2,182L455.9,594.9z"/>
<path fill="#ffffff" d="M352.3,73.9c-90.6-17.3-177.9,41.1-195,130.5s42.5,175.9,133.1,193.2c90.6,17.3,177.9-41.1,195-130.5
	S443,91.2,352.3,73.9z M345.8,195.6c6.4,0,11.6,5.2,11.6,11.6c0,6.4-5.2,11.6-11.6,11.6s-11.6-5.2-11.6-11.6
	C334.2,200.8,339.4,195.6,345.8,195.6z M297,188.9c6.4,0,11.6,5.2,11.6,11.6s-5.2,11.6-11.6,11.6s-11.6-5.2-11.6-11.6
	S290.6,188.9,297,188.9z M299.7,329.9c-48.5-8.1-72.1-49-73-72.4c15.3,15.4,59.9,27,81.5,29.9c23.5,3.2,76.7,1.2,91.3-7.7
	C393.4,306.9,353.7,338.9,299.7,329.9z"/>
</svg>
