<?xml version="1.0" encoding="utf-8"?>
<svg version="1.1" xmlns="http://www.w3.org/2000/svg" xmlns:xlink="http://www.w3.org/1999/xlink" x="0px" y="0px" viewBox="0 0 593.8 595.3">
<path fill="#ffffff" d="M147.8,594.5c-10.3-87.1,42.8-165.4,129.8-175.7l49.8-5.9c87.1-10.3,166.5,94.3,176.8,181.4L147.8,594.5z"/>
<path fill="#ffffff" d="M440.6,213.5c-10.7-90.4-93.6-154.9-185.3-144S98.1,162.3,108.8,252.7c10.7,90.4,93.6,154.9,185.3,144
	S451.3,303.9,440.6,213.5z M305.6,188.7c5.9-0.7,11.3,3.8,12,9.9c0.7,6.2-3.5,11.7-9.4,12.4c-5.9,0.7-11.3-3.8-12-9.9
	C295.5,195,299.7,189.4,305.6,188.7z M246.3,197.7c5.9-0.7,11.3,3.8,12,9.9s-3.5,11.7-9.4,12.4s-11.3-3.8-12-9.9
	C236.1,203.9,240.3,198.4,246.3,197.7z M296.8,311.5c-6.8,1.2-13.8,1.9-20.7,1.9c-31.1,0-63-12.4-93.3-36.6l4.4-5.5
	c35.5,28.2,72.9,39.7,108.4,33.3c33.8-6.2,63.8-28.6,84.4-63.1l6,3.6C364.4,281.4,332.7,305,296.8,311.5z"/>
</svg>
