<?xml version="1.0" encoding="utf-8"?>
<svg version="1.1" xmlns="http://www.w3.org/2000/svg" xmlns:xlink="http://www.w3.org/1999/xlink" x="0px" y="0px" viewBox="0 0 375.23 458.38">
    <path fill="#fff" d="M73.38 458.38c-1.91-52.22 41.07-106.91 102.92-109.17l35.38-1.29c61.85-2.26 111.37 58.24 113.27 110.46z" />
    <path fill="none" d="M282.85 164.46c.54-13.6-12.09-25.43-28.2-26.43s-29.65 9.22-30.15 22.82 4.68-12.8 27.34-11.36c27.16 1.71 30.47 28.57 31.01 14.97zM171.33 261.15c-18.22-.88-34.87-5-46.27-13.42l-4.14 5.64c13.19 9.69 32 14.22 52.07 14.94a37.11 37.11 0 01-1.61-6.71c-.02-.15-.03-.3-.05-.45zM139.76 163c21.37-7.69 33.73 16.2 29.43 3.29s-20.12-19-35.32-13.5-24 20.32-19.71 33.23.03-13.83 25.6-23.02zM254.22 244.78a36.3 36.3 0 011 4.89c.11.76.19 1.52.25 2.27 18.81-8.95 30.41-20.23 33-32.34l-6.84-1.48c-1.99 9.48-11.8 18.88-27.41 26.66z" />
    <circle fill="#fff" cx="214.37" cy="256.8" r="15.68" />
    <path fill="#fff" d="M356.64 155.23C339.9 90.46 237.86 31.28 155.1 52.68 62.37 76.65-4.27 155.21 19.8 237.31c20.71 70.63 117.7 117.83 210.29 93.29s145.37-102.55 126.55-175.37zM114.16 186c-4.31-12.91 4.52-27.79 19.71-33.23s31 .59 35.32 13.5-8.06-11-29.43-3.29c-25.57 9.21-21.29 35.93-25.6 23.02zm6.76 67.37l4.14-5.64c11.4 8.37 28.05 12.54 46.27 13.42v.45a37.11 37.11 0 001.61 6.71c-20.07-.72-38.83-5.25-52.02-14.94zm97.61 36.2c-19.87 2.83-38.09-9.78-40.71-28.16s11.38-35.57 31.24-38.4 38.1 9.79 40.71 28.17-11.37 35.57-31.24 38.39zm6-128.72c.54-13.6 14-23.81 30.15-22.82s28.74 12.83 28.2 26.43-3.88-13.26-31-15c-22.7-1.41-27.88 24.99-27.38 11.39zm31 91.09c-.06-.75-.14-1.51-.25-2.27a36.3 36.3 0 00-1-4.89c15.61-7.77 25.42-17.18 27.47-26.66l6.84 1.48c-2.67 12.11-14.27 23.4-33.08 32.34z" />
    <path fill="#fff" d="M132.85 61c18.34-9.85 81.65-52.14 27-59.52 69.28-11.29 56.33 43.77 36 51.91-3.74 3.19-56.04 20.27-63 7.61zM11.6 94.22a10.59 10.59 0 0010.6-10.6v-31.8H54a10.61 10.61 0 000-21.21H22.2A21.2 21.2 0 001 51.82v31.8a10.6 10.6 0 0010.6 10.6zM21.2 362.18H53A10.6 10.6 0 1053 341H21.2v-31.83a10.6 10.6 0 10-21.2 0V341a21.2 21.2 0 0021.2 21.18zM375.23 341v-31.83a10.6 10.6 0 10-21.2 0V341h-31.81a10.6 10.6 0 100 21.2H354a21.2 21.2 0 0021.23-21.2zM321.22 30.61a10.61 10.61 0 000 21.21H353v31.8a10.6 10.6 0 0021.2 0v-31.8A21.2 21.2 0 00353 30.61z" />
</svg>
