<?xml version="1.0" encoding="utf-8"?>
<svg version="1.1" xmlns="http://www.w3.org/2000/svg" xmlns:xlink="http://www.w3.org/1999/xlink" x="0px" y="0px" viewBox="0 0 531.7 698.7">
	<path  fill="none" d="M0,0h531.7v698H0V0z"/>
	<path fill="#ffffff" d="M88.3,416c-35.7-3.5-32-3.4-47.9-14.9C14.2,382,15.4,323.4,12.5,300c-2.1-17.4-7-24.4-12.5-25.1V441
		c4.3,8.3,9.3,15.1,14.8,19.7c17.7,14.8,72.8,18.3,73.3,9.5C89.7,446.1,89.3,418.2,88.3,416z"/>
	<path fill="#ffffff" d="M387.8,94.5l24.6,11.4c1.2,0.7,2.7,0.3,3.4-0.9c0.7-1.2,0.3-2.7-0.9-3.4l-21.5-10l-3-1.4
		c-1.2-0.7-2.7-0.3-3.4,0.9C386.3,92.3,386.7,93.8,387.8,94.5L387.8,94.5z M428,153.9l-15.6,22.8c-0.7,1.2-0.3,2.7,0.8,3.4
		c1.2,0.7,2.7,0.3,3.4-0.8c0,0,0,0,0-0.1l15.6-22.8c0.7-1.2,0.2-2.7-1-3.4C430.2,152.4,428.7,152.7,428,153.9z M394.2,141l22.6-6.6
		l3.3-1c3.1-0.9,1.8-5.7-1.3-4.8l-22.6,6.6l-3.3,1C389.8,137.1,391.1,141.9,394.2,141z"/>
	<path fill="#ffffff" d="M520.3,203.5l-0.3-0.9l0.1,1l-40.2,11.9c-0.6,0.2-1.2,0.4-1.8,0.5c-6.6,16.8-12.6,34.6-17.6,46.1
		c-10,22.8-37.2,68.6-58.9,80c-62.2,32.7-78.5,14.8-117.9,31.5c-10.3,4.4-23,10.8-37,18.6c8.6,15.2,17.3,34.4,26.1,57.5
		c10.4-5.1,17.4-8.1,19.7-8.1c-2.4,16.5-4.2,33-5.4,49.2c4.8,15,9.7,31.2,14.6,48.6c19.6,70,32.8,136,36.4,154.6l0.6,3.2H481
		c-9.2-43.5-43.1-213.8-27.5-308.9c24.4-24.1,42.7-62.9,53.8-85.9v0c7.1-14.8,16.7-32.4,23.7-54.1l0.6-60.1
		C531.2,194.8,526.9,201.1,520.3,203.5z"/>
	<path fill="#ffffff" d="M136.6,206.1c-46.4,0-84.2,39.4-84.2,87.9S90.2,382,136.6,382s84.2-39.4,84.2-87.9S183,206.1,136.6,206.1z
		 M160.7,257.9c3.9,0,7.1,3.3,7.1,7.4c0,4.1-3.2,7.4-7.1,7.4s-7.1-3.3-7.1-7.4C153.6,261.2,156.8,257.9,160.7,257.9z M129.1,267.2
		c3.9,0,7.1,3.3,7.1,7.4c0,4.1-3.2,7.4-7.1,7.4c-3.9,0-7.1-3.3-7.1-7.4C122,270.5,125.2,267.2,129.1,267.2z M159.4,338.3
		c-4.6,1.3-9.4,2-14.2,2c-11.9,0-24.3-4-36.5-11.8l3.2-5.1c15.8,10.1,31.6,13.3,45.9,9.1c13.6-4,24.9-14.4,31.9-29.5l5.4,2.5
		C187.4,322.3,174.7,333.9,159.4,338.3z"/>
	<path fill="#ffffff" d="M166.8,410.3c-22.1,6.9-45.2,8.1-63,3.5c3.6,65.4-12.4,199.8-22.8,277.5h250.4c-4.4-22.4-17.2-84.7-35.6-150.6
		c-23.9-85.4-48.5-144.2-71.3-170.5C212.4,388.3,192.1,402.4,166.8,410.3z M137.1,489.3c0.2,0.5,4.9,2.7,10.5,5.4
		c4.3-9.6,9-18.1,9.7-8.9l-5,11.2c9.2,4.8,17.5,10.1,8.4,10.5c-0.5-0.3-5.2-2.8-10.6-5.7l-5.2,11.6c-1.6,2.9-5.9,0.3-4.3-2.5
		c0.4-0.2,2.4-5.5,5-11.6c-5.3-2.8-10.1-5.4-10.9-5.8h0C131.7,492.1,134.2,487.8,137.1,489.3z M157.2,579.4l-12.1,2.7l2.1,12.4
		c0.4,1.3-0.4,2.7-1.7,3.1s-2.7-0.4-3.1-1.7l-2.2-12.7l-11.6,2.6c-3.1,0.7-4.5-4.1-1.3-4.8l12.1-2.7l-2.1-12.5
		c-0.3-1.3,0.4-2.7,1.8-3.1c1.3-0.4,2.7,0.4,3.1,1.7l2.2,12.7l11.6-2.6C159,573.8,160.3,578.7,157.2,579.4z M186.8,669.2l-10.6-5.6
		l-5.1,11.7c-0.7,1.2-2.2,1.6-3.4,0.9c-1.2-0.7-1.5-2.2-0.9-3.4l5.1-11.5l-11.1-5.9c-2.8-1.5-0.3-5.8,2.5-4.3l10.6,5.6L179,645v0
		c0.7-1.2,2.2-1.5,3.4-0.8c1.2,0.7,1.6,2.2,0.9,3.4l-5.1,11.5l11.1,5.9l0,0C192.2,666.4,189.7,670.7,186.8,669.2z M264.2,624.5
		L264.2,624.5c0.4-1.3,1.8-2.1,3.1-1.7c1.3,0.4,2.1,1.7,1.7,3.1l-3.6,9l8.3,4c1.2,0.7,1.6,2.2,0.9,3.4c-0.7,1.2-2.2,1.6-3.4,0.9
		l-7.7-3.7l-3.3,8.1c-0.4,1.3-1.7,2.1-3.1,1.8c-1.3-0.4-2.1-1.7-1.8-3.1l3.6-9l-8.3-4c-1.2-0.7-1.6-2.2-0.9-3.4
		c0.7-1.2,2.2-1.6,3.4-0.9l7.7,3.7L264.2,624.5z M254.3,559.2c0.7,1.2,0.3,2.7-0.9,3.4l-3,2.1l-6.9,4.8l7.3,10.5
		c0.7,1.2,0.3,2.7-0.9,3.4c-1.2,0.7-2.7,0.3-3.4-0.9l-7-10.1l-10.3,7.2h0.1c-1.2,0.7-2.7,0.3-3.4-0.9c-0.7-1.2-0.3-2.7,0.9-3.4
		l9.9-6.9l-7.3-10.5c-0.7-1.2-0.3-2.7,0.9-3.4c1.2-0.7,2.7-0.3,3.4,0.9l7,10.2l10.2-7.2C252,557.6,253.6,558,254.3,559.2z
			M219.2,485.3l8.2-4.4l-4.5-8.3h0c-1.5-2.8,2.8-5.4,4.3-2.5l4.6,8.5l8.1-4.4h0c2.8-1.5,5.3,2.8,2.5,4.3l-8.2,4.4l4.5,8.3
		c1.5,2.8-2.8,5.4-4.3,2.5l-1.5-2.7l-3.1-5.8l-8.1,4.4C218.9,491.2,216.4,486.8,219.2,485.3z"/>
	<path fill="#ffffff" d="M75.9,576.2c3.4,2.7,7.8,2.1,12.9-0.7c2.6-25,4.9-50.3,6.6-74c-4.8,5.7-9.7,11.9-14.5,18.7
		C67.2,539.6,66.5,568.6,75.9,576.2z"/>
	<path fill="#ffffff" d="M402,302.3c15.4-19.5,22.5-44,19.8-68.9c-2.7-25-14.7-47.4-33.9-63.2c-16.6-13.7-36.9-20.9-57.9-20.9
		c-3.2,0-6.5,0.2-9.8,0.5c-50.5,5.4-87.1,51.7-81.6,103.2c2.7,25,14.7,47.4,33.9,63.2c19.2,15.8,43.2,23,67.7,20.4
		C364.7,334,386.6,321.8,402,302.3z M364.4,206.4c3.7-0.2,6.9,2.8,7.1,6.7c0.2,3.9-2.7,7.2-6.4,7.4c-3.7,0.2-6.9-2.8-7.1-6.7
		C357.8,209.9,360.7,206.6,364.4,206.4z M327.3,216.3c3.7-0.2,6.9,2.8,7.1,6.7s-2.6,7.2-6.4,7.4c-3.7,0.2-6.9-2.8-7.1-6.7
		S323.5,216.5,327.3,216.3z M369.3,287.6c-7.9,3.4-16.3,5.1-24.7,5.1c-13.9,0-28.2-4.5-41.3-13.4l3.4-5c19.3,13.1,41.3,16,60.3,7.8
		c14.4-6.2,25-18,27-30l5.9,1C397.6,267,385.6,280.6,369.3,287.6z"/>
	<path fill="#ffffff" d="M524.1,183.1l-29.5-91.5c-0.9-2.6-2.7-4.6-5.2-5.8c-2.4-1.2-5.2-1.3-7.8-0.4l-0.2,0.1l-40.2,11.8
		c-5.3,2-8,8.1-6.1,13.7l29.6,91.5c1.8,5.3,7.6,8.1,12.9,6.3l0.2,0l40.1-11.8C523.2,194.9,526,188.8,524.1,183.1z M451.9,126.9
		c-4.7,0.3-8.8-3.5-9-8.4c-0.3-4.9,3.3-9.1,8-9.4c4.7-0.3,8.8,3.5,9,8.4C460.2,122.4,456.6,126.6,451.9,126.9z"/>
</svg>
