<?xml version="1.0" encoding="utf-8"?>
<svg version="1.1" xmlns="http://www.w3.org/2000/svg" xmlns:xlink="http://www.w3.org/1999/xlink" x="0px" y="0px" viewBox="0 0 595.3 594.5">
	<path fill="#ffffff" d="M171.9,594.5c-1.9-52.2,41-106.1,102.9-108.4l35.4-1.3c61.9-2.3,111.4,56.9,113.3,109.1L171.9,594.5z"/>
	<path fill="#ffffff" d="M233.3,197.9c18.3-9.8,81.7-52.1,27-59.5c69.3-11.3,56.3,43.8,36,51.9C292.5,193.5,240.2,210.6,233.3,197.9z"/>
	<path fill="#ffffff" d="M457.1,292.1c-16.8-64.8-118.8-124-201.5-102.6c-92.7,24-159.4,102.5-135.3,184.6
		c20.7,70.6,117.7,117.8,210.3,93.3S475.9,365,457.1,292.1z M214.6,322.9c-4.3-12.9,4.5-27.8,19.7-33.2c15.2-5.5,31,0.6,35.3,13.5
		c4.3,12.9-8-11-29.4-3.3C214.6,309.1,218.9,335.8,214.6,322.9z M221.3,390.3l4.1-5.6c11.3,8.3,27.8,12.5,45.9,13.4
		c0,0.2,0,0.4,0.1,0.6c0.3,2.2,0.8,4.4,1.5,6.5C256.6,404.5,236.2,401.2,221.3,390.3z M341.4,411.8c-5.8,7.1-14.1,11.7-23.5,13
		c-9.4,1.3-18.7-0.8-26.2-6c-7.4-5.1-12.1-12.7-13.4-21.2c-1.2-8.5,1.3-17.1,7-24.1c5.8-7.1,14.1-11.7,23.5-13
		c9.4-1.3,18.7,0.8,26.2,6c7.4,5.1,12.1,12.7,13.4,21.2C349.6,396.3,347.1,404.8,341.4,411.8z M324.9,297.8
		c0.5-13.6,14-23.8,30.1-22.8c16.1,1,28.7,12.8,28.2,26.4c-0.5,13.6-3.9-13.3-31-15C329.6,285,324.4,311.3,324.9,297.8z M355.5,389
		c-0.1-0.7-0.1-1.5-0.2-2.2c-0.2-1.7-0.6-3.3-1-4.9c15.8-7.8,25.8-17.3,27.9-26.9l6.8,1.5C386.3,368.7,374.6,380,355.5,389z"/>
	<ellipse fill="#ffffff" transform="matrix(0.9732 -0.2298 0.2298 0.9732 -81.8997 82.7377)" cx="314.4" cy="393.1" rx="16.8" ry="16.8"/>
</svg>
