<svg id="Calque_1" data-name="Calque 1" xmlns="http://www.w3.org/2000/svg" viewBox="0 0 327.3 386.26"><defs><style>.cls-1{fill:#fff;}.cls-2{fill:none;}</style></defs><g id="Bébé"><path class="cls-1" d="M200.8,513.8c-1.6-45,35.3-92.1,88.7-94l30.5-1.1c53.3-1.9,96,50.2,97.6,95.2l-216.8-.1Z" transform="translate(-135.7 -127.64)"/><path class="cls-2" d="M281.4,342.1c-15-.7-28.7-4.2-38-11l-3.4,4.6c10.8,8,26.2,11.6,42.8,12.2a31.56,31.56,0,0,1-1.3-5.5C281.4,342.4,281.4,342.3,281.4,342.1Z" transform="translate(-135.7 -127.64)"/><path class="cls-2" d="M349.3,328.8a28.32,28.32,0,0,1,.8,4c.1.6.1,1.2.2,1.8,15.4-7.3,25-16.6,27.1-26.5l-5.6-1.2C370.2,314.6,362.2,322.3,349.3,328.8Z" transform="translate(-135.7 -127.64)"/><path class="cls-1" d="M428.9,255.2C415.8,202,336.2,153.5,271.6,171,199.2,190.7,147.2,255.2,166,322.6c16.2,58,91.9,96.7,164.1,76.6S443.5,315,428.9,255.2ZM249.6,276.7c-3.1-9.1,3.1-19.6,13.9-23.3s21.8.4,24.8,9.5-5.7-7.7-20.7-2.3C249.6,267,252.5,285.8,249.6,276.7Zm-7.8,58.1,3.4-6.6c9.4,6.8,23.1,10.3,38,11v2.4a31.56,31.56,0,0,0,1.3,5.5C268.1,346.5,252.7,342.8,241.8,334.8Zm80.1,29.7c-16.3,2.3-31.3-8.1-33.5-23.2s9.4-29.2,25.6-31.5,31.3,8.1,33.5,23.2S338.3,362.2,321.9,364.5ZM327.1,259c.3-9.5,9.9-16.8,21.2-16.1s20.2,9,19.8,18.6-2.7-9.4-21.8-10.5C330.4,250,326.7,268.6,327.1,259Zm25.3,74.6a11,11,0,0,0-.2-1.8c-.2-1.3-.5-4.7-.8-6,12.9-6.4,20.9-14.1,22.6-21.9l5.6,3.2C377.4,317.1,367.8,326.3,352.4,333.6Zm-33.8-8.9a12.9,12.9,0,1,1-12.9,12.9A12.93,12.93,0,0,1,318.6,324.7Z" transform="translate(-135.7 -127.64)"/><path class="cls-1" d="M249.7,177.8c15.1-8.1,67-42.9,22.1-48.9,56.8-9.3,51.2,35.9,34.5,42.7C303.4,174.2,255.5,188.2,249.7,177.8Z" transform="translate(-135.7 -127.64)"/><path class="cls-1" d="M145.6,198.9a9.13,9.13,0,0,0,9.1-9.1V162.4h27.4a9.1,9.1,0,0,0,0-18.2H154.7a18.24,18.24,0,0,0-18.3,18.3v27.4A9.07,9.07,0,0,0,145.6,198.9Z" transform="translate(-135.7 -127.64)"/><path class="cls-1" d="M153.9,433.9h27.4a9.1,9.1,0,0,0,0-18.2H153.9V388.3a9.1,9.1,0,1,0-18.2,0v27.4A18.08,18.08,0,0,0,153.9,433.9Z" transform="translate(-135.7 -127.64)"/><path class="cls-1" d="M463,415.7V388.3a9.1,9.1,0,0,0-18.2,0v27.4H417.4a9.1,9.1,0,0,0,0,18.2h27.4A18.27,18.27,0,0,0,463,415.7Z" transform="translate(-135.7 -127.64)"/><path class="cls-1" d="M416.5,144.1a9.1,9.1,0,0,0,0,18.2h27.4v27.4a9.1,9.1,0,1,0,18.2,0V162.3A18.24,18.24,0,0,0,443.8,144l-27.3.1Z" transform="translate(-135.7 -127.64)"/></g></svg>