<svg id="Calque_1" data-name="Calque 1" xmlns="http://www.w3.org/2000/svg" viewBox="0 0 327.82 459.31"><defs><style>.cls-1{fill:#fff;}</style></defs><g id="Parent2"><path class="cls-1" d="M165.8,514.9c-.9-70.5,38.2-121.1,105.5-129.1l38.6-4.6c65.5-5,129,66,136.9,133.5Z" transform="translate(-118.98 -55.59)"/><path class="cls-1" d="M397.6,226.8c-16.4-66.2-72.5-120-143.5-111.5S141.9,191.4,142.6,257.2c.7,70.5,70.5,118,141.5,109.5S405.9,296.8,397.6,226.8ZM286.2,302.7a96.23,96.23,0,0,1-16,1.5c-24.1,0-48.8-9.6-72.3-28.3l3.4-8.3c27.5,21.8,56.5,30.8,84,25.8,26.2-4.8,49.4-22.2,65.4-48.9l4.6,6.8C338.6,279.4,314,297.6,286.2,302.7Zm9-98.3c5.86-1.44,11.55,2,12.56,8s-2.77,9.3-8.71,10.87-11.55.66-12.56-5.37A11.81,11.81,0,0,1,295.21,204.4ZM258,218.48c2.09,5.74-2.33,9.3-8.28,10.86s-10.9.45-12.93-5.17,1.18-11.5,7-13.14A11.81,11.81,0,0,1,258,218.48Z" transform="translate(-118.98 -55.59)"/><path class="cls-1" d="M393.34,142.65c-4.8,7.25-17.51,13.35-21.31,4.29,21.61,3.63,32.22-60.57-19.11-67.82,13.61,1.9-12.21,36.72-23.91,6.2-4-10.5-15.41-33.77-37-7.54C281.28,59,234.51,34.06,220.2,89.48,180.64,75.32,149.74,99,146.3,138c-35.42,17.56-20.81,56-8.41,72.79,2,7.54-4.8,17.36-18.91,13.16,3.51,27.19,39.43,33,43.43,15,28.72-103.6,97.76-105.7,116.77-101.4,47.82,10.78,51.93,28.62,71.64,44.64C360.52,193.87,401.85,174.61,393.34,142.65Z" transform="translate(-118.98 -55.59)"/></g></svg>