<svg id="Calque_1" data-name="Calque 1" xmlns="http://www.w3.org/2000/svg" viewBox="0 0 307.8 436.05"><defs><style>.cls-1{fill:#fff;}</style></defs><g id="Parent4"><path class="cls-1" d="M179.55,515c15.61-80.53,74.67-138.29,156.54-138.47,84.09-.19,137,100.79,140.56,138.47Z" transform="translate(-179.55 -78.94)"/><path class="cls-1" d="M486.61,243.19C492,171,469.56,95.45,374,80.49c-82.47-12.91-138.19,57.05-149,125.44-12.23,71.94,35.61,140.34,110.84,150.58S481.08,317.83,486.61,243.19Zm-97.68-54.58a9.49,9.49,0,0,1,9.39,10.61c-.63,5.66-5,7.79-10.83,7.66s-10.74-2.43-10.08-8.21A11.26,11.26,0,0,1,388.93,188.61Zm-45.45,7.78c-.78,5.76-6.06,6.78-11.71,5.45s-9.32-4.47-8.53-10.11a9.42,9.42,0,0,1,11.65-7.95A11.26,11.26,0,0,1,343.48,196.39Zm-68.65,41.79,4.66-6.21c16.51,24.15,40.32,39.8,67.12,44,28.13,4.36,57.71-4,85.69-24l3.52,7.52c-23.9,17.14-49.09,26-73.72,26.18a109.88,109.88,0,0,1-16.35-1.25C317.31,280,292.06,263.6,274.83,238.18Z" transform="translate(-179.55 -78.94)"/></g></svg>