<svg id="Calque_1" data-name="Calque 1" xmlns="http://www.w3.org/2000/svg" viewBox="0 0 312.02 472.35"><defs><style>.cls-1{fill:#fff;}</style></defs><g id="Parent3"><path class="cls-1" d="M449.73,515c.67-44.14-77.31-144.7-160.5-129.63C236.8,394.88,173.7,445.15,167.68,515Z" transform="translate(-165.66 -42.65)"/><path class="cls-1" d="M198.87,225.64c-6.17,63.82,57.68,137,128.82,138.75,71.21,2,121.07-68.7,129.9-123.64-3.65-64.69-46.38-136.56-118.4-139.07C251.44,99.41,206.38,148,198.87,225.64Zm50.73,31.71c10.85,9.63,60.84,18.39,81.29,19.5,22,1.19,42.68-.44,69.49-7.36C379.89,289.3,354,302.9,328.73,302.9,299,302.9,267.88,278.25,249.6,257.35Zm57.7-59.6c6.63,1.21,10.61,7.06,9.08,13.14s-7.38,6.32-14.06,5.23S291,213,292.54,206.78,300.62,196.66,307.3,197.75Zm61.81,13.8c.23,6.39-4.77,7.41-11.53,7.07s-12.43-1.81-12.64-8.07,4.9-11.14,11.64-10.93S368.89,205.16,369.11,211.55Z" transform="translate(-165.66 -42.65)"/><path class="cls-1" d="M165.66,307.92c31.06,7,47.76-7.46,49-46.2,1.15-37.24,15.18-73.93,40.43-97.07,38.2-35,110.51-38.4,150.42,15.42,15.29,20.63,27.19,48.58,22.23,89.7-3.45,28.59,10.86,56.21,32.9,63.87-16.85-15.89-15.08-53.91-2.16-71.7,21-28.92,31.69-67-4.65-96.43-8.62-7,11.9-33.17-21.32-48.76,6.91-34.6-25-60.8-64-49.19C275.91,0,198.46,87,214.91,126.49c7,16.88-15.78,9.73-18.59,32-2,7.82,5.22,20.58-.74,26.44-17.75,17.47-22.59,39.1-14.88,55C197.11,273.89,193.36,291.1,165.66,307.92Z" transform="translate(-165.66 -42.65)"/></g></svg>