<svg id="Calque_1" data-name="Calque 1" xmlns="http://www.w3.org/2000/svg" viewBox="0 0 327.61 460.72"><defs><style>.cls-1{fill:#fff;}</style></defs><g id="Parent1"><path class="cls-1" d="M422.1,514.9c7.6-69.7-35.5-123.6-105.2-131.2l-39.8-4.3c-69.7-7.6-132.6,65.9-140.2,135.6Z" transform="translate(-136.9 -54.28)"/><path class="cls-1" d="M333.4,102c-70.8-13.4-128.3,47.3-146.1,109.6-16.9,57.1,29.6,135.5,99.5,149.2,69.8,13.9,154.44-31,156.2-107C444.81,175.81,419.5,119.1,333.4,102Zm-32,200.6c-41.8-6.7-58.8-40.6-59.4-59.3,13.1,12.4,48.3,22.9,67,25.3,20.3,2.7,66.2,1.3,78.9-5.7C382.4,284.6,348,310,301.4,302.6Zm62.87-96.74c.28,6.39-4.71,7.45-11.47,7.17s-12.45-1.71-12.71-8,4.81-11.19,11.55-11S364,199.47,364.27,205.86Zm-68.18-17.47c6.64,1.19,10.64,7,9.13,13.11s-7.37,6.35-14.05,5.28-11.36-3.11-9.81-9.31S289.41,187.32,296.09,188.39Z" transform="translate(-136.9 -54.28)"/><path class="cls-1" d="M437,158.88c8-24.5,3.22-59.78-26.68-49.28C419.1,78,375,43,339.08,78.77c-30.37-30.67-58-26.7-76.19-19.08C270.32,64,279.93,64,283,78.1c-10.5-9.9-45.52-.12-33.7,30.1-46.88,3.78-56.82,50.68-46.38,66.1,83.13-44.67,172.56-87.82,240.21,89.18C466.74,248.49,478.45,174.84,437,158.88Z" transform="translate(-136.9 -54.28)"/></g></svg>