<svg id="Calque_1" data-name="Calque 1" xmlns="http://www.w3.org/2000/svg" viewBox="0 0 380.65 478.31"><defs><style>.cls-1{fill:#fff;}</style></defs><g id="Selfie5"><path class="cls-1" d="M301.24,71c-32.08-1.11-59,24.15-60.21,59.51s23.79,64.93,55.87,66,59.08-26.66,60.3-62S333.32,72.13,301.24,71Zm-12.81,56.71c-5,1.52-9.33,6.15-9.7,3.92-.3-1.22.87-3.47,2.81-5.47-1.61-2.24-2.82-5.32-1.5-5.6,1.15-.26,2.9,1.53,4.06,3.49a11.73,11.73,0,0,1,3-1.46,12.35,12.35,0,0,1,2.56-.49c-.64-2.47-.68-5.2.54-5.07s2.46,2.75,2.88,5.12c3.32.37,6.26,1.62,6.61,3C300.23,127.35,293.23,126.27,288.43,127.73Zm47.19,2.21c-.27,2.19-4.69-2.18-9.6-3.47-4.73-1.24-11.52.1-11.07-2,.31-1.52,3.71-3,7.34-3.32.37-2.42,1.59-5.2,2.9-5.34s1.18,2.84.46,5.39a9.8,9.8,0,0,1,1.47.28,12.09,12.09,0,0,1,3.63,1.72c.94-1.85,2.8-3.78,4.11-3.53,1.52.29,0,3.68-1.75,5.51C334.82,126.91,335.85,128.83,335.62,129.94ZM275.9,154.06l3-2.53c3.64,6.95,12.17,12.2,21.76,13.28,12.66,1.46,24.86-4.56,33.41-16.32l3.26,3.26c-5.87,7.92-13.27,13.49-21.29,16.14a36.19,36.19,0,0,1-15.34,1.6C289.84,168.29,280.08,162.14,275.9,154.06Z" transform="translate(-148.62 -37.67)"/><path class="cls-1" d="M242.22,215.9c-2.63.8-53.95,12.71-53.95,12.71s3.87-13.78,22.42-34.22c15.72-17.33,3-44-13.18-28.95-40.19,39.76-68,93.05-32.75,97.09,21.72,1.89,53.76-5.24,74.42-10.37C239.09,251.79,241.6,229.29,242.22,215.9Z" transform="translate(-148.62 -37.67)"/><path class="cls-1" d="M341.88,208.51a6,6,0,0,1-.67-1.48c-17.9-.41-33.85.26-49,1-17.07.85-24.18,2.13-39.28,5.54-5.59,120.4-34,252.35-33.84,252.35-.06.45,28.31,1.37,33.26,2.37-4.95,19.86-10.75,31.34-14.7,47.68h44.7l16-43.93,21.25-.12s-6.15,38.23-6,44.05h43.57l6.38-48.5,33.68-5S377.65,268.53,341.88,208.51Z" transform="translate(-148.62 -37.67)"/><path class="cls-1" d="M509.64,212.89c-10.3-.92-23.8-1.74-30.37-3.15a11.62,11.62,0,0,1-9.76-12.58,431.33,431.33,0,0,1-118.15,10.32c6.82,10.65,13.33,20.54,15.57,29.62C443.18,230,503.59,225,509.64,212.89Z" transform="translate(-148.62 -37.67)"/><path class="cls-1" d="M451.77,114,464,127.71a1.62,1.62,0,0,0,2.35.32,1.73,1.73,0,0,0,.36-2.43l-10.72-12-1.49-1.68a1.62,1.62,0,0,0-2.35-.32,1.78,1.78,0,0,0-.36,2.43Zm8.91,48.43-15.87,10.42a1.79,1.79,0,0,0-.44,2.4,1.67,1.67,0,0,0,2.32.4l0-.08,15.88-10.42a1.67,1.67,0,0,0,.27-2.46A1.56,1.56,0,0,0,460.68,162.47ZM443.12,145.4,459,147.1l2.3.21c2.19.26,2.68-3.17.49-3.43l-15.82-1.7-2.31-.21C441.42,141.71,441,145.18,443.12,145.4Z" transform="translate(-148.62 -37.67)"/><path class="cls-1" d="M485.72,125.74,478.43,194a7.12,7.12,0,0,0,6.42,7.77l.17.07,29,3.43a8.29,8.29,0,0,0,7.88-7.58l7.38-68.21a6.91,6.91,0,0,0-1.66-5.29,6.68,6.68,0,0,0-4.89-2.43h-.2l-29-3.35A7.72,7.72,0,0,0,485.72,125.74Zm32.53,3.65h.15a5,5,0,0,1,3.7,1.84,5.2,5.2,0,0,1,1.26,4l-5.29,50.32a6.27,6.27,0,0,1-6,5.73l-21.93-2.59-.12-.06a5.39,5.39,0,0,1-4.87-5.88l5.22-50.34a5.85,5.85,0,0,1,5.88-5.55Z" transform="translate(-148.62 -37.67)"/><path class="cls-1" d="M308.4,63.89S275.9,18,233,47.66C209.57,63.87,209.7,94.81,212.56,111c3.42,21.3-5.49,38.26-35.78,22.28,19.72,36.63,55,16.94,56-4.85C234,104,251,56,308.4,63.89Z" transform="translate(-148.62 -37.67)"/></g></svg>