<svg id="Calque_1" data-name="Calque 1" xmlns="http://www.w3.org/2000/svg" viewBox="0 0 308.33 410.62"><defs><style>.cls-1{fill:#fff;}.cls-2{fill:none;}</style></defs><g id="Selfie6"><path class="cls-1" d="M345.22,128c-37.71-13.81-78.7,3.46-92.78,41.93s5.07,80.84,42.79,94.65S374.92,258.43,389,220,382.93,141.84,345.22,128Zm-35.91,55a5.33,5.33,0,0,1-5.84,4.91,5.46,5.46,0,0,1-4.46-6.32,5.32,5.32,0,0,1,5.84-4.9C307.66,177.07,309.67,179.86,309.31,183.06Zm28.2,4.05a5.34,5.34,0,0,1-5.85,4.91,5.46,5.46,0,0,1-4.46-6.32,5.33,5.33,0,0,1,5.85-4.9A5.4,5.4,0,0,1,337.51,187.11ZM321.66,234.6A46.58,46.58,0,0,1,302,231.29c-10.14-4.08-19.22-11.86-26.13-22.56l4.47-3.93c10,15.85,25.29,24.62,41.73,23.78,12.46-.61,23.89-6.68,29.16-15.35l3.58,3.51C348.77,226.81,335.69,233.94,321.66,234.6Z" transform="translate(-143.34 -104.38)"/><path class="cls-1" d="M189.41,251.39l-29,5.64a9.53,9.53,0,0,1-9.68-8l-3-16.06a23.06,23.06,0,0,0-2.57,2.69c-4.61,5.67,4.92,20.36,4.92,20.36,41.08,49.26,103.64,60.9,103.64,60.9l2.57-35.45S226.53,276.39,189.41,251.39Z" transform="translate(-143.34 -104.38)"/><path class="cls-1" d="M375.12,274.75s46.55-38.27,51.14-81.32c.67-6.21,7.79-15.71,20.61-9.72,6.63,3.09,4.45,20.47,4.45,20.47-10.17,69-72.22,110.89-72.22,110.89Z" transform="translate(-143.34 -104.38)"/><path class="cls-2" d="M309,515h21.17c-3.11-16.68-10-53.74-11.38-60.47C317.55,461.64,311.32,500.41,309,515Z" transform="translate(-143.34 -104.38)"/><path class="cls-1" d="M318.76,454.53c1.38,6.73,8.27,43.79,11.38,60.47h55.67c1.36-24,4.69-91.43,1-116.06-.22-17.85-14.93-25.17-17.67-34.39-5.92-19.86-9.65-85.53-9.78-86.12-1.48.4-15.54,1.27-15.54,1.27s.19,34.14-1.12,44.07c-4.73,5.2-18.36,8.38-26.09,8.83S291.68,331,290,325.92c.09-5.8-2.3-23.67-3-45.11,0-.14-13.8.83-15.29.48-.11.6-1.26,64.66-6.53,85.09-2.39,9.32-18,13.56-16.53,30.18-3,26.13,3.42,98.77,5.24,118.44h55C311.32,500.41,317.55,461.64,318.76,454.53Z" transform="translate(-143.34 -104.38)"/><path class="cls-1" d="M226.53,185.44,214,176.13a1.38,1.38,0,0,0-2,.13,1.47,1.47,0,0,0,.11,2.09l11,8.16,1.53,1.15a1.39,1.39,0,0,0,2-.13,1.53,1.53,0,0,0-.12-2.09Zm-15.72-38.86,11.46-11.4a1.51,1.51,0,0,0-.05-2.07,1.43,1.43,0,0,0-2,.06v.07l-11.46,11.4a1.43,1.43,0,0,0,.19,2.1A1.32,1.32,0,0,0,210.81,146.58Zm17.57,11.24-13.49,1.28-2,.22c-1.86.16-1.69,3.1.18,2.94L226.6,161l2-.22C230.42,160.59,230.17,157.64,228.38,157.82Z" transform="translate(-143.34 -104.38)"/><path class="cls-1" d="M183.52,146.66l-33,6.32h-.24a7.72,7.72,0,0,0-5.4,3.21,8,8,0,0,0-1.45,6.21L157.76,240a9.53,9.53,0,0,0,9.68,8l32.93-6.41.18-.1a8.19,8.19,0,0,0,6.71-9.46l-14.2-77.66C192.24,149.51,188.1,146.14,183.52,146.66ZM181,156.6a6.72,6.72,0,0,1,7.22,5.85l10.29,57.3a6.2,6.2,0,0,1-5.08,7.16l-.14.08-24.93,4.85a7.23,7.23,0,0,1-7.33-6.07L150.7,168.51a6,6,0,0,1,1.09-4.7,5.85,5.85,0,0,1,4.09-2.43h.18Z" transform="translate(-143.34 -104.38)"/><path class="cls-1" d="M308,104.38c-6.72,8-7.52,14.79-2,19.64,10.15,5.15,24.61,6.38,30.13.89C326.51,122.73,311.92,116.78,308,104.38Z" transform="translate(-143.34 -104.38)"/></g></svg>