<svg id="Calque_1" data-name="Calque 1" xmlns="http://www.w3.org/2000/svg" viewBox="0 0 457.69 472.43"><defs><style>.cls-1{fill:#fff;}</style></defs><g id="Selfie1"><path class="cls-1" d="M182.7,292.4c-25.11-13.08-74.81-47.2-87.9-112-1.5-13.1-9.1-14.4-13.2-14.9,0,0-8.7-5-12.2,20.7-.14,87.36,102.5,147,113.1,144.14C183.6,312.3,183.5,294.1,182.7,292.4Z" transform="translate(-69.4 -41.87)"/><path class="cls-1" d="M423.28,49.51l16.22,7.68a1.6,1.6,0,0,0,2.25-.6,1.69,1.69,0,0,0-.61-2.33l-14.23-6.73-2-1a1.59,1.59,0,0,0-2.24.6,1.76,1.76,0,0,0,.6,2.33Zm26.49,40.3-10.35,15.44a1.75,1.75,0,0,0,.52,2.33,1.64,1.64,0,0,0,2.24-.52V107l10.35-15.45a1.64,1.64,0,0,0-.69-2.33A1.53,1.53,0,0,0,449.77,89.81Zm-22.34-8.72,14.92-4.49,2.16-.69c2.07-.6,1.21-3.88-.86-3.28l-14.93,4.49-2.16.69C424.49,78.42,425.44,81.69,427.43,81.09Z" transform="translate(-69.4 -41.87)"/><path class="cls-1" d="M514.5,125.9s-20.9,6.7-21.3,6.8c-8.09,49.8-37,84.33-62.8,97.67-22.52,11.65-67,18.13-97.1,31.33-7.9,3.5-14.6,8.5-25.3,14.7,6.6,12,10.2,19.1,17,37.2,7.9-4,13.3-7.3,15.1-7.3-1.8,13-3.2,33-4.2,45.7,3.7,11.8,7.4,24.5,11.2,38.2,15,55,25.1,107,27.9,121.6l.5,2.5H480.4c-7.1-34.2-34.43-154.2-25.09-230.16,11-26,65.67-73.09,71.65-144,1-11.47-3.76-26-3.76-26C522.9,119,514.5,125.9,514.5,125.9Z" transform="translate(-69.4 -41.87)"/><path class="cls-1" d="M210.72,151c-33.3,5.2-56.87,36.19-52.64,69s34.94,55.43,68.14,50.33,57.84-36.28,53.6-69.2S244,145.8,210.72,151Zm-11.45,44.12c3.55-1.52,11.66-1.52,11.53,3,0,4.18-5.07,1.9-10.39,3.55-3.68,1.14-5.45,6.08-7.23,3C191.54,200.69,195.72,196.5,199.27,195.11Zm33.24,44.36a37.73,37.73,0,0,1-10.39,1.83c-8.76.29-18-2.5-27.14-8l1.21-4.94c11.93,7.22,23.58,9.24,34,5.77,9.92-3.37,18-11.45,22.81-23.09l5,2.73C252.72,226.67,243.67,235.82,232.51,239.47ZM250,189.91c-.13,3.55-4.05.26-7.73,1-5.45,1.26-8.87,5.7-10.78,2.15-2.15-3.93,4.95-7.73,8.75-8.24S249.46,185.86,250,189.91Z" transform="translate(-69.4 -41.87)"/><path class="cls-1" d="M239.9,288.5c-16.9,5.5-34.6,6.3-48.3,2.8,2.8,51.5-9.5,157.2-17.5,218.2H365.9c-3.4-17.7-13.1-66.6-27.2-118.4C320.3,324,301.5,277.7,284.1,257,274.8,271.2,259.3,282.3,239.9,288.5Zm-22.2,57.9c.2.5,4.5,2.6,9.8,5.2,4-9.1,8.3-17.3,9-8.4l-4.6,10.6c8.5,4.6,16.2,9.6,7.8,10-.5-.3-4.8-2.7-9.9-5.5l-4.8,11c-1.4,2.8-5.5.3-4-2.4.4-.2,2.2-5.3,4.6-11-4.9-2.7-9.4-5.2-10.1-5.6h0C212.7,349.1,215,345,217.7,346.4Zm16.9,73.8-10,2.3,1.7,10.6a2.26,2.26,0,0,1-1.4,2.7,2.13,2.13,0,0,1-2.6-1.5l-1.8-10.9-9.7,2.2c-2.6.6-3.8-3.5-1.1-4.1l10-2.3L218,408.5a2.23,2.23,0,0,1,1.5-2.7,2.13,2.13,0,0,1,2.6,1.5l1.8,10.9,9.7-2.2C236.2,415.3,237.2,419.6,234.6,420.2Zm22.9,71.2-9-4.9-4.3,10.2a2,2,0,0,1-2.9.8,2.23,2.23,0,0,1-.8-3l4.3-10-9.5-5.2c-2.4-1.3-.3-5.1,2.1-3.8l9,4.9,4.3-10.2h0a2,2,0,0,1,2.9-.7,2.15,2.15,0,0,1,.8,3l-4.3,10,9.5,5.2h0C262.1,489,259.9,492.8,257.5,491.4Zm55.1-38.9h0a2.4,2.4,0,0,1,2.9-1.7,2.44,2.44,0,0,1,1.6,3l-3.4,8.6,7.8,3.9a2.44,2.44,0,0,1,.9,3.3,2.24,2.24,0,0,1-3.2.9l-7.2-3.6-3.1,7.8a2.4,2.4,0,0,1-2.9,1.7,2.44,2.44,0,0,1-1.6-3l3.4-8.6-7.8-3.9a2.44,2.44,0,0,1-.9-3.3,2.22,2.22,0,0,1,3.2-.9l7.2,3.6Zm-9.4-52.2a2.06,2.06,0,0,1-.8,2.9l-2.5,1.8-5.7,4.1,6,8.9a2.06,2.06,0,0,1-.8,2.9,1.93,1.93,0,0,1-2.8-.8l-5.8-8.5-8.5,6h.1a2,2,0,0,1-2.8-.8,2.06,2.06,0,0,1,.8-2.9l8.2-5.9-6-8.9a2.06,2.06,0,0,1,.8-2.9,2,2,0,0,1,2.8.8l5.8,8.6,8.4-6A1.93,1.93,0,0,1,303.2,400.3Zm-29.5-55.4,8.4-4.7-4.6-8.7h0c-1.5-3,2.9-5.7,4.4-2.6l4.7,8.9,8.3-4.7h0c2.9-1.6,5.4,3,2.5,4.6l-8.4,4.7,4.6,8.7c1.5,3-2.9,5.7-4.4,2.6l-1.5-2.9-3.2-6-8.3,4.7C273.4,351.1,270.9,346.4,273.7,344.9Z" transform="translate(-69.4 -41.87)"/><path class="cls-1" d="M167.3,418.9c2.6,2.1,6,1.7,9.9-.6,2-19.6,3.8-39.6,5-58.2-3.7,4.5-7.4,9.3-11.1,14.7C160.6,390.2,160.1,413,167.3,418.9Z" transform="translate(-69.4 -41.87)"/><path class="cls-1" d="M427.12,206.12a66.37,66.37,0,0,0,10.55-48,63.78,63.78,0,0,0-24.94-41.5,58.41,58.41,0,0,0-39.25-11.47c-2.11.19-4.31.48-6.51.86-33.38,6.06-56,39.51-50.35,74.47A63.84,63.84,0,0,0,341.57,222a58.45,58.45,0,0,0,45.85,10.61A60.69,60.69,0,0,0,427.12,206.12Zm-33.56-63c2.57-.19,4.86,2.08,4.95,5a5.08,5.08,0,0,1-4.49,5.59c-2.57.19-4.86-2.09-4.95-5S391,143.21,393.56,143.12Zm-26,7.39c2.57-.19,4.86,2.08,5,5a5.09,5.09,0,0,1-4.49,5.59c-2.57.19-4.86-2.09-5-5A5,5,0,0,1,367.52,150.51ZM398,198a41.44,41.44,0,0,1-17.33,3.79c-9.72,0-19.81-3.41-29.07-10l2.39-4.74c13.57,9.76,29.07,11.94,42.36,5.78,10.09-4.64,17.52-13.45,19-22.36l4.13,1.71C417.77,182.56,409.33,192.8,398,198Z" transform="translate(-69.4 -41.87)"/><path class="cls-1" d="M205.3,157.7s26.5-27.2-1.1-52.7c-22-21.2-45.2-10-55.5,6-14.1,22-16.2,58.5-38,61.1,45.6,7.8,48.9-45.5,74.3-41.5C200.9,133.1,208.2,148.2,205.3,157.7Z" transform="translate(-69.4 -41.87)"/><path class="cls-1" d="M305.76,267.15a151.29,151.29,0,0,1,31.56-15.31c-14.62-1.82-33.82-4.1-45.89-.74C300.8,262.08,303.89,267.17,305.76,267.15Z" transform="translate(-69.4 -41.87)"/><path class="cls-1" d="M514.5,108.65,495,46.53a6.5,6.5,0,0,0-3.45-4,6.31,6.31,0,0,0-5.18-.26l-.17.08-26.49,8.11a7.32,7.32,0,0,0-4,9.32l19.59,62.13a6.77,6.77,0,0,0,8.54,4.31H484l26.49-8A7.86,7.86,0,0,0,514.5,108.65Zm-12.11-3.6-18.83,5.7h-.12a4.81,4.81,0,0,1-6.08-3.07L463.44,63.53a5.21,5.21,0,0,1,2.82-6.63l18.83-5.76.12-.06a4.52,4.52,0,0,1,3.68.18,4.64,4.64,0,0,1,2.46,2.82l13.86,44.16A5.6,5.6,0,0,1,502.39,105.05Z" transform="translate(-69.4 -41.87)"/></g></svg>