<svg id="Calque_1" data-name="Calque 1" xmlns="http://www.w3.org/2000/svg" viewBox="0 0 518.9 462.74"><defs><style>.cls-1{fill:#fff;}</style></defs><g id="Selfie3"><path class="cls-1" d="M285,282.64c0,33.55,26.66,60.74,59.55,60.74s59.54-27.19,59.54-60.74-26.66-58.36-59.54-58.36S285,249.1,285,282.64Zm52.45-7.7c.22,2.26-3.82,1.22-8.07,1.76s-7.47,2.62-7.53.34c-.22-2.25,3.27-4.6,7.52-5.14S337.22,272.61,337.44,274.94Zm31.14,6.24c-.8,2.12-4-.59-8-2s-7.86-.92-6.92-3,5-2.69,9-1.31S369.4,279,368.58,281.18Zm-30.24,35.51c-16-1.83-23.13-14.47-23.68-21.59,5.21,4.51,18.82,7.9,26,8.49,7.79.67,25.27-.66,30-3.55C368.92,308.41,356.24,318.7,338.34,316.69Z" transform="translate(-35.59 -51.98)"/><path class="cls-1" d="M105.87,122.84l-6.78-15.61a1.51,1.51,0,0,0-2-1,1.61,1.61,0,0,0-1,2L102,122l.83,1.92a1.5,1.5,0,0,0,2,1,1.67,1.67,0,0,0,1-2Zm6.27-45.29,17-4.56a1.65,1.65,0,0,0,1.09-2,1.55,1.55,0,0,0-1.92-1l-.06.06-17,4.55a1.55,1.55,0,0,0-1,2.09A1.44,1.44,0,0,0,112.14,77.55Zm10.5,20.17L109.19,91.6l-2-.86c-1.86-.86-3.29,2-1.43,2.88l13.45,6.13,2,.85C123.06,101.46,124.43,98.53,122.64,97.72Z" transform="translate(-35.59 -51.98)"/><g id="Calque_6" data-name="Calque 6"><polygon class="cls-1" points="353.71 163.19 343.32 176.02 361.14 183.61 367.07 202.46 382.56 188.12 360.98 180.92 353.71 163.19"/><polygon class="cls-1" points="282.43 155.01 290.72 170.42 272.68 172.64 264.41 185.83 254.11 172.27 273.32 170.45 282.43 155.01"/><path class="cls-1" d="M404.37,230.47c1.26-2.95,5.91-14.29,14.64-15.22,15.1-1.6,15.16,14.54,15.16,14.54C421.33,218.57,404.68,230.3,404.37,230.47Z" transform="translate(-35.59 -51.98)"/><path class="cls-1" d="M305.92,215.76c-.65-3.09-3-14.91-11.25-17.46-14.26-4.4-18.93,12.8-18.93,12.8C290.26,202.7,305.66,215.54,305.92,215.76Z" transform="translate(-35.59 -51.98)"/><path class="cls-1" d="M205.78,194.76a56,56,0,0,0,42.13-16.15A61.14,61.14,0,0,0,266.1,135.9c.77-33.95-25.17-62.71-57.67-64.05-2.14-.06-4.27,0-6.3.06A56,56,0,0,0,166.38,88a61.16,61.16,0,0,0-18.19,42.72,63.7,63.7,0,0,0,16.38,44.21A58.18,58.18,0,0,0,205.78,194.76ZM172.1,141l3.75-2.2c2.61,8.39,11,15.89,21.32,19,13.65,4.15,28.31,0,40.09-11.28l2.94,4.25c-8.06,7.56-17.33,12.2-26.71,13.51A40.5,40.5,0,0,1,196.26,163C184.59,159.49,175.08,150.76,172.1,141ZM229,124.83c.13,3-2.24,3.55-5.46,3.41s-5.93-.81-6.05-3.79a5.11,5.11,0,0,1,5.5-5.25A6.13,6.13,0,0,1,229,124.83Zm-32.46-8.32a5.13,5.13,0,0,1,4.35,6.25c-.72,2.89-3.51,3-6.69,2.51s-5.41-1.48-4.67-4.43A6.13,6.13,0,0,1,196.49,116.51Z" transform="translate(-35.59 -51.98)"/><path class="cls-1" d="M230.25,408.2c-2.55-1.14-16.77-16.22,22.43-40.59-1-6.13-7.82-85.92-4.65-114.4A62.27,62.27,0,0,1,278,265.78c1.16-8.62,5-16.8,12.76-28.09-5.75-9.16-22.07-18.4-31-21.75-25.68-9.63-76.51-7.24-107.62-27.4C137,178.73,98.42,163.88,82,114.91l-8.6,16.67c-1.46,3.27-6,4.86-9.1,3.66l-16.55-7.45c20.81,60.52,82.54,97.91,90.66,107.87-2.12,23.8-11.54,101.75-6.4,138.77-.94,26.84-1.39,139.73-1.39,139.73h55.84l5.42-73.81,24.45,73.81h61.13s-10.9-64.53-18.69-111.44C248.48,407.55,236.48,411,230.25,408.2Z" transform="translate(-35.59 -51.98)"/><path class="cls-1" d="M286.86,471.82c.16,27,.66,41.75.66,41.75L325,514.73l5.79-21.37,10.57,21,37.46-.78-.38-29.18S329.64,479.09,286.86,471.82Z" transform="translate(-35.59 -51.98)"/><path class="cls-1" d="M407.56,319.24c3.16,29.39,29.08,50.7,57.89,47.61S515.06,337.41,511.9,308,483,259.39,454.23,262.49,404.4,289.84,407.56,319.24Zm62.55-15.61a3.85,3.85,0,0,1,3.24,4.45,4,4,0,0,1-4.22,3.65,3.84,3.84,0,0,1-3.25-4.45A4,4,0,0,1,470.11,303.63Zm-20.45-2.07A3.84,3.84,0,0,1,452.9,306a4,4,0,0,1-4.22,3.65,4.09,4.09,0,0,1,1-8.1Zm-20,21.37,3.12-1.83c2.18,7,9.13,13.23,17.75,15.83,11.36,3.45,23.56,0,33.36-9.39l2.45,3.54c-6.7,6.28-14.42,10.15-22.22,11.24a33.53,33.53,0,0,1-14.34-1.1C440.11,338.31,432.19,331,429.71,322.93Z" transform="translate(-35.59 -51.98)"/></g><path class="cls-1" d="M90.4,62.86l-.11-.1L68.48,52.28a6.87,6.87,0,0,0-8.22,3.83L36.13,107.66a5.73,5.73,0,0,0-.12,4.59,5.53,5.53,0,0,0,3.18,3.23l.16,0L61.21,126a6.41,6.41,0,0,0,8.07-3.66L93.36,70.68A5.91,5.91,0,0,0,90.4,62.86ZM85.63,75.23,68.45,112.05a4.56,4.56,0,0,1-5.75,2.61l-15.6-7.43-.11,0a4,4,0,0,1-2.27-2.3,4.11,4.11,0,0,1,.08-3.28L62,64.83a4.91,4.91,0,0,1,5.86-2.73l15.56,7.48.08.07A4.22,4.22,0,0,1,85.63,75.23Z" transform="translate(-35.59 -51.98)"/><path class="cls-1" d="M380.22,378.75c15.6-10.58,25.15-16,40.47-20.57A78.37,78.37,0,0,1,404.56,336c-11.61,3.17-21,7.37-33.14,12.76-26.88,9.53-37.26,46.28-37.26,46.28s-8.9-47.76-21.28-50.88c-1.39-.35-61.4,23-78.46,45.82-3,4-3.15,7.18-1.8,9.85,5.86,11.64,27.36-8.86,67.85-17.36A520.62,520.62,0,0,0,271.89,464s72.65,14,118.59,15.09C394.39,447.67,379.5,379.24,380.22,378.75Z" transform="translate(-35.59 -51.98)"/><path class="cls-1" d="M552.29,330.84c-8.07-4.56-12.83.76-14.76,4.06-17.19,29.5-65.1,38.27-65.1,38.27s-27,3.42-39.2-4.19c-6.75-4.23-9.52-4.63-13.71-3.25a108.79,108.79,0,0,0-31.43,16.92,276.56,276.56,0,0,1,4.2,29C405,399.58,415.08,394.32,414,396.8c-12.92,28.67-16.48,65.52-16.35,65.55A177.58,177.58,0,0,0,396,514.6c12.26.1,25.26.13,37.69.12.16-1,7.49-17.82,7.49-17.82s7.93,17.58,8,17.8c28.24-.08,47-.33,47-.33s-7.53-48-7.39-47.86-2.66-65.18-3.13-66.46c16.93-8.05,53.9-16.44,67.8-56.8C553.4,343.25,556.46,333.19,552.29,330.84Z" transform="translate(-35.59 -51.98)"/></g></svg>