<svg id="Calque_1" data-name="Calque 1" xmlns="http://www.w3.org/2000/svg" viewBox="0 0 356.86 472"><defs><style>.cls-1{fill:#fff;}</style></defs><g id="Selfie4"><path class="cls-1" d="M247.16,135.61c-3.58,36.25,20.18,68.27,53.06,71.51s62.45-23.5,66-59.74-20.43-65.7-53.32-68.95S250.74,99.37,247.16,135.61Zm44.3-5.89c-.19,3.09-4,1.47-7.39,1.2s-7.73.81-7.42-2.28,4.44-5.32,7.84-5S291.66,126.53,291.46,129.72Zm25.84-2.36c3.28.88,6.53,4.42,5.66,7.39s-4.35.56-7.75-.37-7.42-.65-6.55-3.62S314,126.38,317.3,127.36Zm-47.45,23.06c10,9.83,29.5,15.58,59.2,9,0,0-11.56,18.11-34.15,14.92C277.1,171.83,270.33,156.21,269.85,150.42Z" transform="translate(-128.35 -42.98)"/><path class="cls-1" d="M452.54,190.48c-1.18,2-22.12,34.06-34.25,39.65-9.55,4.4-40.89,3.78-58.06-.56-28.87-7.31-44.41-11.66-64-12.68-16.68-.86-35.59-2.37-56.35-1.53-45.34,1.84-69-18.74-79.31-76.93l-18.12,1a8.41,8.41,0,0,1-7.5-8.18l-.66-14.94a20.47,20.47,0,0,0-5,8.87,1.29,1.29,0,0,0,0,.19C124.84,150.45,133,249,231.09,255.72c1.1.08,2,0,1.8,1.1C223.74,297,207,342.13,203.55,390.76c4.86,2.35,9.67,1.09,9.49,4.69-2.46,48.66,1,102.19,1.42,119.53h61.43c.29-9.81,2-36.83,3.88-68.16C287,476.4,291.7,504.68,294.2,515h67.37c-2.6-14.68-11.79-70.22-15.39-125.74-3.05-47-1.51-94.07,5.58-116.25.45-.05,54.42.74,71-2.13,16.74-2.91,43.61-42,57.15-66A40.23,40.23,0,0,0,485,180.38C483.43,164.71,465,169,452.54,190.48Z" transform="translate(-128.35 -42.98)"/><path class="cls-1" d="M227.94,120.86l-1.19-29.63,0-.2a6.79,6.79,0,0,0-2.09-5.14,7,7,0,0,0-5.24-2.08l-69.66,2.32a8.41,8.41,0,0,0-8.27,7.4l1.28,29.6.07.17a7.23,7.23,0,0,0,7.38,7.1l69.69-2.23A7.82,7.82,0,0,0,227.94,120.86Zm-8.35-3.48a5.92,5.92,0,0,1-6.06,5.54l-51.39,1.48a5.48,5.48,0,0,1-5.59-5.37l-.05-.14-1-22.41a6.36,6.36,0,0,1,6.26-5.6l51.37-1.55a5.27,5.27,0,0,1,4,1.57,5.14,5.14,0,0,1,1.59,3.89l0,.16Z" transform="translate(-128.35 -42.98)"/><path class="cls-1" d="M159.71,51.34a2,2,0,0,0-2.77.16,1.85,1.85,0,0,0,.12,2.69L158.81,56l12.46,13.29a2,2,0,0,0,2.78-.16,1.84,1.84,0,0,0-.13-2.68L159.71,51.34Zm53.83,17.39a1.91,1.91,0,0,0,2.81-.06l13.34-16.88.1,0a1.9,1.9,0,0,0-.23-2.65,2,2,0,0,0-2.75.26L213.47,66.24A1.76,1.76,0,0,0,213.54,68.73ZM192,44.93v2.62l.34,18c.07,2.49,4,2.28,3.92-.22V62.74l-.35-18C195.92,42.32,192,42.43,192,44.93Z" transform="translate(-128.35 -42.98)"/></g></svg>