<svg id="Calque_1" data-name="Calque 1" xmlns="http://www.w3.org/2000/svg" viewBox="0 0 525.01 430.69"><defs><style>.cls-1{fill:none;}.cls-2{fill:#fff;}</style></defs><g id="Selfie2"><path class="cls-1" d="M230,194c4.9-.31,8.54,1.45,8.33-1.25s-4.16-4.58-9.05-4.37-8.74,2.7-8.54,5.41S225.15,194.35,230,194Z" transform="translate(-44.47 -84.37)"/><path class="cls-1" d="M188.52,133.68a73.33,73.33,0,0,1,45.28,15.58c5.44-2.93,10.47-5.93,15-9C264,130,272.31,119.79,270.41,113.61s-14.27-9.91-32.36-9.91h-.5c-20.74.07-47,4.69-73.94,13s-51.25,19.24-68.44,30.83C79.94,157.78,71.66,168,73.56,174.18s14.26,9.91,32.36,9.91h.5c3.94,0,8.08-.2,12.38-.54A73.7,73.7,0,0,1,188.52,133.68Z" transform="translate(-44.47 -84.37)"/><path class="cls-1" d="M182.28,209.23c1.35,2.29,4.37-1.66,8.53-4.06s8.12-2.39,6.77-4.78-5.93-2.4-10.1.1S180.93,206.84,182.28,209.23Z" transform="translate(-44.47 -84.37)"/><path class="cls-1" d="M175.93,239.83c10.72,6.14,22.06,8.95,32.78,8.11a46.93,46.93,0,0,0,18.73-5.51c12.07-6.56,20.5-18.11,21.54-29.24l-4.57-.42c-.84,9.57-8.33,19.56-19,25.39-14.15,7.7-31.43,6.66-47.14-2.6Z" transform="translate(-44.47 -84.37)"/><path class="cls-1" d="M180.36,171.1c-21.83,6.72-43.21,11-61.56,12.45a74.17,74.17,0,0,0-2.27,8.14c20.19-1.32,43.84-6.06,66.18-12.94,21.46-6.6,41.34-14.89,57.5-23.88a74.37,74.37,0,0,0-6.41-5.61A300.83,300.83,0,0,1,180.36,171.1Z" transform="translate(-44.47 -84.37)"/><path class="cls-2" d="M116.53,191.69A73.68,73.68,0,1,0,262.2,207.36a73.43,73.43,0,0,0-22-52.49c-16.16,9-36,17.28-57.5,23.88C160.37,185.63,136.72,190.37,116.53,191.69Zm112.79-3.27c4.89-.21,8.84,1.66,9.05,4.37s-3.43.94-8.33,1.25-9.15,2.5-9.26-.21S224.43,188.63,229.32,188.42Zm-4,49.74c10.72-5.83,18.21-15.82,19-25.39l4.57.42c-1,11.13-9.47,22.68-21.54,29.24a46.93,46.93,0,0,1-18.73,5.51c-10.72.84-22.06-2-32.78-8.11l2.29-4.27C193.93,244.82,211.21,245.86,225.36,238.16Zm-37.88-37.67c4.17-2.5,8.74-2.5,10.1-.1s-2.5,2.29-6.77,4.78-7.18,6.35-8.53,4.06S183.22,203,187.48,200.49Z" transform="translate(-44.47 -84.37)"/><path class="cls-2" d="M264.16,263.36c-22,27.12-74.45,25.9-99,28.93C119,298,106.57,325.9,99.2,336.94,76.56,370.8,48.65,445.77,44.79,484.8c-1.83,16.73,4.41,21,11.41,23.86,10,4.1,23.38-8.54,25.89-19.08,32.76-100.6,60.78-132.13,60.78-132.13S161,471,146.17,515.06c41.1-.2,111.35,0,155.37,0C306,430,272.29,336.6,282.28,313.19c4-13.42,79.16-87.21,79.16-146,0-12.38-21.54-10.28-34.51,12.84C305.65,218,283.05,240,264.16,263.36Z" transform="translate(-44.47 -84.37)"/><path class="cls-2" d="M173.5,142.67c17.22-5.33,38.65-12,42.42-19.14a4.17,4.17,0,0,0,.32-3.38l0-.13c-2.46-9.52-15.06-26.74-30-33.16-7.95-3.42-15.33-3.31-21.94.33l0,0a7.13,7.13,0,0,0-.8,1.19c-.88,1.46-2.2,3.67-4.92,4.22-2.14.44-4.5-.27-7.39-2.22h0c-6.57,0-14.16,4.71-20.47,12.74-8.23,10.48-14.6,27.33-10.35,41.41C125.3,155.69,148.82,150.23,173.5,142.67Z" transform="translate(-44.47 -84.37)"/><path class="cls-2" d="M270.41,113.61c-1.89-6.12-14.27-9.91-32.36-9.91h-.5a177.46,177.46,0,0,0-18.75,1.14,49.73,49.73,0,0,1,7,14.48,10.4,10.4,0,0,1-.78,8.15c-4.85,9.24-23.53,15.62-49.4,23.64-15.24,4.67-31.25,9.06-43.75,9.06-10,0-17.75-2.81-21.08-10.53l-.11-.31a40.48,40.48,0,0,1-1.71-10.2c-5,2.74-9.64,5.54-13.85,8.38C79.94,157.78,71.66,168,73.56,174.18s14.26,9.91,32.36,9.91h.5c20.73-.08,47-4.69,73.94-13s51.25-19.24,68.44-30.83C264,130,272.31,119.79,270.41,113.61Z" transform="translate(-44.47 -84.37)"/><g id="Calque_3" data-name="Calque 3"><path class="cls-2" d="M432.07,117.08c-27.11,0-49.08,22.1-49.08,52s22,54.09,49.08,54.09,49.07-24.21,49.07-54.09S459.17,117.08,432.07,117.08Zm24.75,39.27a4.34,4.34,0,0,1,4.43,4.34,4.44,4.44,0,0,1-4,4.83,4.32,4.32,0,0,1-4.42-4.34A4.45,4.45,0,0,1,456.82,156.35Zm-23.25.45a4.33,4.33,0,0,1,4.42,4.34,4.44,4.44,0,0,1-4,4.83,4.33,4.33,0,0,1-4.42-4.34A4.38,4.38,0,0,1,433.57,156.8Zm26.92,34.43c-1.15,3.49-1.74,6.16-7.33,8.19-8.71,3.17-28.13,2.87-35.44-15.56,22,4.58,35.09,3.92,48.31-.28,2.85-.9,3.27-.66,3,0C469,183.61,461.4,188.47,460.49,191.23Z" transform="translate(-44.47 -84.37)"/><path class="cls-2" d="M569.48,145.87c-.12.74,0-3.87-3.68-5.57l-.5,11.28a12.79,12.79,0,0,1-11.47,12.3l-.39,0-.39,0-10.82-.59c-13.33,25.34-39.81,67.47-96.13,68-26.39.24-42.2,2.28-62.33,19.29-34.83,42.53-84.5,58.27-86.77,59.9-5.83,4.18-8.75,10.16-8.79,16-.06,8.83,6.53,12,13.15,10.25,53.62-14.26,87.71-49.36,88.26-49.3-2.52,10.28-11.1,83.15-10.07,115.26L377.14,514h43.19l4.59-77.47L443.43,514h47.28L473.34,380.75c-4.79-54.6-6.47-99.36,7.5-120.69C562.2,224,569.48,145.87,569.48,145.87Z" transform="translate(-44.47 -84.37)"/><path class="cls-2" d="M528.55,98.43l-2.28,52.85a5.49,5.49,0,0,0,5.32,5.66l.13.05,22.44,1.22a6.39,6.39,0,0,0,5.69-6.21l2.35-52.83a5.31,5.31,0,0,0-1.54-4,5.15,5.15,0,0,0-3.88-1.64l-.15,0-22.47-1.15A5.94,5.94,0,0,0,528.55,98.43Zm25.19,1.22h.12a3.9,3.9,0,0,1,2.94,1.24,4,4,0,0,1,1.16,3l-1.61,38.95a4.84,4.84,0,0,1-4.31,4.7l-17-.92-.1,0a4.17,4.17,0,0,1-4-4.29l1.56-39a4.49,4.49,0,0,1,4.25-4.55Z" transform="translate(-44.47 -84.37)"/><path class="cls-2" d="M497.75,99.79l11.37,9.54a1.33,1.33,0,0,0,1.93,0,1.41,1.41,0,0,0,0-2l-10-8.37-1.39-1.18a1.34,1.34,0,0,0-1.93,0,1.47,1.47,0,0,0,0,2Zm12.76,37.81L499,147.79a1.44,1.44,0,0,0-.08,2,1.37,1.37,0,0,0,1.91.06l0-.07,11.52-10.19a1.36,1.36,0,0,0-.06-2A1.25,1.25,0,0,0,510.51,137.6Zm-16.07-11.66,12.89-.47,1.87-.1c1.79-.05,1.79-2.85,0-2.8l-12.89.46-1.87.1C492.65,123.18,492.73,126,494.44,125.94Z" transform="translate(-44.47 -84.37)"/></g></g></svg>